<?xml version="1.0" encoding="utf-8" ?>
<!--03-12-2025 v10prem-->
<svg width="1392" height="642" viewBox="0 0 1392 642" fill="none" xmlns="http://www.w3.org/2000/svg">
	<g clip-path="url(#clip0_2_967)">
		<mask id="mask0_2_967" style="mask-type:luminance" maskUnits="userSpaceOnUse" x="0" y="-85" width="1392" height="813">
			<path d="M1392 -84.6504H0V727.35H1392V-84.6504Z" fill="white"/>
		</mask>
		<g mask="url(#mask0_2_967)">
			<path d="M-793.454 172.444L-792.865 231.761L-793.036 231.346L-743.226 280.398L-744.022 280.068L-643.508 279.372L-644.795 279.906L-594.774 229.413L-594.152 228.787H-593.252L-469.461 228.207C-428.2 227.975 -386.937 228.031 -345.673 227.929L-98.0966 227.551H-96.6907L-95.6977 228.546L-18.581 305.906L-20.8568 304.962L122.705 305.194L120.587 306.071L174.378 252.446L228.318 198.973L229.077 198.221H230.118L421.105 199.149L516.599 199.887L612.093 200.759L516.599 201.638L421.105 202.376L230.118 203.304L231.919 202.559L178.447 256.499L124.816 310.296L123.944 311.173H122.705L-20.8568 311.405H-22.1862L-23.1328 310.458L-100.493 233.341L-98.0966 234.334L-345.68 233.951C-386.944 233.849 -428.207 233.91 -469.468 233.673L-593.259 233.093L-591.735 232.462L-642.227 282.483L-642.772 283.022H-643.515L-744.029 282.326H-744.504L-744.827 281.999L-793.878 232.188L-794.055 232.01V231.778L-793.454 172.444Z" fill="url(#paint0_linear_2_967)" fill-opacity="0.08"/>
			<path d="M17.2469 256.478L35.1573 237.723L53.1605 219.066C65.1735 206.635 77.1331 194.156 89.2249 181.804L125.466 144.719L161.822 107.75L162.662 106.896H163.899L207.979 106.65L252.059 106.525L296.139 106.444L340.219 106.52L337.876 107.49L367.186 78.3068L396.599 49.2256L397.493 48.344H398.706L452.066 48.7662L505.412 49.3671L532.092 49.7476L558.772 50.2278L585.452 50.708L612.132 51.3228L585.452 51.9376L558.772 52.4156L532.092 52.8958L505.412 53.2763L452.066 53.8772L398.706 54.2994L400.813 53.4294L371.731 82.854L342.555 112.169L341.59 113.139H340.212L296.132 113.216L252.052 113.135L207.972 113.009L163.892 112.761L165.98 111.903L129.008 148.262L91.9231 184.502C79.5714 196.592 67.0991 208.554 54.6616 220.567L36.0018 238.57L17.2469 256.478Z" fill="url(#paint1_linear_2_967)" fill-opacity="0.08"/>
			<path d="M-732.489 505.292L-666.165 504.61L-599.843 504.06L-533.522 503.545L-467.197 503.208L-468.671 503.819L-421.948 456.62L-421.25 455.917L-420.236 455.913L-365.447 455.634L-310.66 455.433L-309.465 455.428L-308.609 456.282L-247.127 517.558L-249.28 516.667L-116.017 516.444L-49.3839 516.333L17.2465 516.414L18.6176 516.416L19.5781 517.381L139.044 637.251L136.917 636.369L206.431 636.485L275.947 636.778L277.038 636.782L277.787 637.539L325.022 685.256L323.424 684.595L398.063 684.976L435.382 685.168L472.7 685.479L547.339 686.101L621.978 686.857L547.339 687.614L472.7 688.235L435.382 688.546L398.063 688.739L323.424 689.117L322.498 689.122L321.823 688.456L274.105 641.221L275.947 641.984L206.431 642.274L136.917 642.392H135.673L134.787 641.508L14.9172 522.042L17.2465 523.007L-49.3839 523.091L-116.017 522.979L-249.28 522.754H-250.546L-251.433 521.863L-312.711 460.381L-310.66 461.23L-365.447 461.028L-420.236 460.75L-418.526 460.042L-465.724 506.765L-466.346 507.38L-467.197 507.377L-533.522 507.041L-599.843 506.526L-666.165 505.976L-732.489 505.292Z" fill="url(#paint2_linear_2_967)" fill-opacity="0.08"/>
			<path d="M-259.578 355.345L-219.825 354.682L-180.072 354.155L-140.321 353.635L-100.568 353.313L-21.0637 352.67C5.43766 352.406 31.939 352.385 58.4427 352.25H59.7141L60.6421 353.164L100.725 392.999L140.738 432.903L138.367 431.921L259.271 432.012L319.723 432.244L380.176 432.566L501.08 433.555L561.535 434.341L591.76 434.747L621.992 435.262L591.764 435.8L561.539 436.204L501.085 436.993L380.18 437.979L319.728 438.304L259.276 438.536L138.371 438.626H136.979L135.998 437.64L96.094 397.627L56.2503 357.542L58.4427 358.449C31.939 358.315 5.43766 358.294 -21.0637 358.029L-100.568 357.382L-140.321 357.06L-180.072 356.54L-219.825 356.013L-259.578 355.345Z" fill="url(#paint3_linear_2_967)" fill-opacity="0.08"/>
			<path d="M163.899 395.302L174.339 384.145L184.874 373.085L205.944 350.953L227.149 328.957L248.451 307.056L249.182 306.304L250.305 306.288C265.791 306.056 281.277 305.947 296.765 305.824L319.993 305.65L343.223 305.59C358.709 305.567 374.195 305.464 389.683 305.543L436.141 305.683L482.602 306.047L529.062 306.671L552.29 307.086C560.034 307.197 567.778 307.436 575.52 307.615L598.75 308.19C606.494 308.351 614.236 308.654 621.98 308.9C614.236 309.146 606.494 309.448 598.75 309.61L575.52 310.186C567.778 310.364 560.034 310.603 552.29 310.715L529.062 311.13L482.602 311.754L436.141 312.118L389.683 312.257C374.195 312.336 358.709 312.234 343.223 312.211L319.993 312.151L296.765 311.977C281.277 311.863 265.791 311.745 250.305 311.513L252.161 310.745L230.258 332.045L208.262 353.252L186.129 374.322L175.058 384.853L163.899 395.302Z" fill="url(#paint4_linear_2_967)" fill-opacity="0.08"/>
			<path d="M314.671 435.262C320.075 429.27 325.522 423.321 331.013 417.414C336.532 411.535 342.005 405.61 347.566 399.782C353.127 393.954 358.637 388.059 364.242 382.268L381.021 364.854L381.819 364.028L383.053 364.012L412.918 363.673L442.786 363.536L457.717 363.504L472.651 363.56C482.606 363.611 492.562 363.597 502.517 363.745C512.472 363.894 522.427 363.931 532.382 364.13C542.337 364.33 552.292 364.458 562.247 364.745C572.202 364.996 582.158 365.265 592.113 365.624L607.047 366.191C612.025 366.372 617.002 366.655 621.98 366.887C617.002 367.119 612.025 367.399 607.047 367.583L592.113 368.146C582.158 368.508 572.202 368.775 562.247 369.026C552.292 369.316 542.337 369.432 532.382 369.643C522.427 369.854 512.472 369.893 502.517 370.026C492.562 370.158 482.606 370.162 472.651 370.211L457.717 370.269L442.786 370.234L412.918 370.097L383.053 369.759L385.085 368.917L367.671 385.695C361.871 391.302 355.992 396.81 350.158 402.373C344.323 407.937 338.398 413.407 332.526 418.927C326.602 424.403 320.65 429.848 314.671 435.262Z" fill="url(#paint5_linear_2_967)" fill-opacity="0.08"/>
			<path d="M-5.82092 444.324C4.61908 444.074 15.0591 443.772 25.4991 443.608L56.8052 443.028H57.3202L57.7239 443.417L79.9286 464.877L102.054 486.419L146.158 529.647L144.137 528.81L202.633 528.466L261.13 528.32C280.63 528.255 300.129 528.261 319.626 528.339L378.121 528.52L436.617 528.902L495.114 529.517C514.602 529.768 534.11 530.035 553.61 530.445L582.856 530.99C592.6 531.144 602.344 531.454 612.104 531.672C602.36 531.904 592.616 532.204 582.856 532.355L553.61 532.902C534.122 533.306 514.611 533.573 495.114 533.83L436.617 534.447L378.121 534.83L319.626 535.011C300.126 535.06 280.627 535.066 261.13 535.027L202.633 534.883L144.137 534.538H142.931L142.119 533.709L98.8784 489.571L77.3395 467.448L55.8772 445.239L56.8052 445.619L25.4991 445.037C15.0498 444.879 4.61444 444.575 -5.82092 444.324Z" fill="url(#paint6_linear_2_967)" fill-opacity="0.08"/>
			<path d="M341.859 539.893L351.06 548.198L360.185 556.583C366.233 562.204 372.286 567.821 378.281 573.519C384.299 579.175 390.277 584.869 396.214 590.601C402.177 596.31 408.111 602.047 414.018 607.813L411.9 606.936C420.655 606.848 429.409 606.672 438.162 606.66L464.422 606.551L477.553 606.577L490.685 606.632C499.437 606.642 508.191 606.719 516.947 606.864C525.7 606.98 534.454 607.052 543.207 607.263C551.96 607.474 560.714 607.593 569.47 607.873C578.222 608.101 586.976 608.385 595.73 608.727L608.861 609.275C613.239 609.449 617.614 609.722 621.992 609.943C617.614 610.163 613.239 610.435 608.861 610.611L595.73 611.159C586.976 611.5 578.222 611.785 569.47 612.012C560.714 612.293 551.96 612.435 543.207 612.622C534.454 612.81 525.7 612.906 516.947 613.022C508.194 613.138 499.438 613.233 490.685 613.242L477.553 613.298L464.422 613.323L438.162 613.214C429.409 613.203 420.655 613.026 411.9 612.938L410.631 612.926L409.782 612.061C404 606.17 398.264 600.235 392.572 594.257C386.838 588.317 381.144 582.339 375.49 576.324C369.801 570.341 364.182 564.288 358.554 558.228L350.172 549.103L341.859 539.893Z" fill="url(#paint7_linear_2_967)" fill-opacity="0.08"/>
			<path d="M-215.528 56.752L-201.889 37.9369L-188.171 19.182L-160.716 -18.2976L-160.287 -18.8823L-159.514 -18.8962C-139.602 -19.2233 -119.692 -19.2952 -99.7813 -19.5087L-40.0506 -20.0469L-10.1852 -20.2789L19.6824 -20.4158L79.4132 -20.6478L77.0932 -19.692L122.333 -65.0735L123.331 -66.0896H124.723L231.415 -65.976L284.761 -65.744C302.544 -65.6604 320.327 -65.6048 338.121 -65.4099H339.26L340.021 -64.635L387.581 -16.2073L386.117 -16.8151L422.727 -16.4834L459.339 -15.966L495.951 -15.4231L532.563 -14.7434L495.951 -14.066L459.339 -13.5208L422.727 -13.0057L386.117 -12.674H385.277L384.651 -13.2888L336.226 -60.8488L338.126 -60.0623C320.343 -59.8674 302.56 -59.814 284.766 -59.7282L231.42 -59.4962L124.727 -59.3848L127.108 -60.3708L81.7239 -15.1308L80.7588 -14.1216H79.4132L19.6824 -14.3536L-10.1852 -14.4905L-40.0506 -14.7225L-99.7813 -15.2816C-119.692 -15.4951 -139.602 -15.567 -159.514 -15.8941L-158.313 -16.4927L-186.872 20.1633L-201.165 38.4913L-215.528 56.752Z" fill="url(#paint8_linear_2_967)" fill-opacity="0.08"/>
			<path d="M-87.0121 36.9778L-20.6903 36.2934L45.6339 35.7459L111.956 35.2285L178.278 34.8944L176.804 35.5046L223.529 -11.6958L224.225 -12.3988L225.241 -12.4034L280.028 -12.6795L334.817 -12.8837L336.01 -12.8883L336.868 -12.0345L398.348 49.2413L396.195 48.3504L529.461 48.1277L596.091 48.0163L662.724 48.0999L664.093 48.1022L665.053 49.065L784.521 168.935L782.392 168.053L851.908 168.169L921.422 168.462L922.513 168.466L923.264 169.225L970.497 216.943L968.899 216.279L1043.54 216.66L1080.86 216.852L1118.18 217.163L1192.82 217.785L1267.46 218.541L1192.82 219.297L1118.18 219.919L1080.86 220.23L1043.54 220.423L968.899 220.803L967.973 220.808L967.3 220.14L919.583 172.907L921.422 173.668L851.908 173.96L782.392 174.076L781.15 174.078L780.262 173.194L660.392 53.7259L662.724 54.691L596.091 54.7745L529.461 54.6631L396.195 54.4404L394.931 54.4381L394.042 53.5472L332.766 -7.93276L334.817 -7.08366L280.028 -7.28779L225.241 -7.56389L226.951 -8.27379L179.751 38.451L179.131 39.0658L178.278 39.0611L111.956 38.7248L45.6339 38.2097L-20.6903 37.6622L-87.0121 36.9778Z" fill="url(#paint9_linear_2_967)" fill-opacity="0.08"/>
			<path d="M639.656 -23.9896C650.096 -24.2402 660.536 -24.5441 670.962 -24.7065L702.282 -25.2888H702.797L703.201 -24.8991L725.403 -3.43677L747.529 18.1021L791.632 61.3307L789.614 60.4931L848.11 60.1498L906.607 60.006C926.104 59.9394 945.602 59.9449 965.101 60.0222L1023.6 60.2031L1082.08 60.5813L1140.58 61.1984C1160.08 61.4467 1179.58 61.7135 1199.07 62.1264L1228.32 62.6693C1238.07 62.8201 1247.82 63.1217 1257.57 63.3514C1247.83 63.5834 1238.07 63.8804 1228.32 64.0335L1199.07 64.5787C1179.59 64.9823 1160.08 65.2491 1140.58 65.5067L1082.08 66.1238L1023.58 66.488L965.087 66.669C945.59 66.7185 926.092 66.7247 906.593 66.6876L848.097 66.5414L789.6 66.198H788.394L787.579 65.3675L744.355 21.2573L722.814 -0.868527L701.352 -23.0732L702.28 -22.6928L670.96 -23.2751C660.527 -23.4375 650.091 -23.7391 639.656 -23.9896Z" fill="url(#paint10_linear_2_967)" fill-opacity="0.08"/>
			<path d="M987.334 71.5803L996.535 79.8859L1005.66 88.2704C1011.71 93.8917 1017.76 99.5108 1023.76 105.206C1029.77 110.859 1035.75 116.553 1041.69 122.289C1047.65 127.996 1053.59 133.732 1059.49 139.498L1057.37 138.621C1066.13 138.535 1074.88 138.357 1083.64 138.345L1109.89 138.232L1123.02 138.257L1136.15 138.31C1144.9 138.323 1153.66 138.4 1162.41 138.542C1171.16 138.658 1179.92 138.73 1188.67 138.944C1197.43 139.157 1206.18 139.271 1214.93 139.552C1223.69 139.779 1232.44 140.064 1241.2 140.405L1254.33 140.953C1258.7 141.129 1263.08 141.403 1267.46 141.621C1263.08 141.853 1258.7 142.115 1254.33 142.289L1241.2 142.825C1232.45 143.167 1223.69 143.452 1214.94 143.679C1206.18 143.96 1197.43 144.101 1188.68 144.289C1179.92 144.477 1171.17 144.572 1162.42 144.688C1153.66 144.804 1144.91 144.899 1136.15 144.92L1123.02 144.973L1109.89 144.999L1083.63 144.892C1074.88 144.878 1066.12 144.702 1057.37 144.616L1056.1 144.602L1055.25 143.737C1049.47 137.849 1043.73 131.914 1038.04 125.933C1032.31 119.994 1026.62 114.016 1020.96 108C1015.27 102.016 1009.65 95.9635 1004.02 89.9037L995.637 80.7814L987.334 71.5803Z" fill="url(#paint11_linear_2_967)" fill-opacity="0.08"/>
			<path d="M1236.11 94.5909L1249.75 75.7757L1263.47 57.0208L1290.94 19.532L1291.37 18.9473L1292.14 18.9334C1312.05 18.6063 1331.96 18.5344 1351.87 18.3209L1411.6 17.7827L1441.47 17.5507L1471.33 17.4138L1531.07 17.1818L1528.75 18.1376L1573.99 -27.2439L1574.97 -28.2322H1576.36L1683.06 -28.1185L1736.4 -27.8865C1754.18 -27.803 1771.97 -27.7473 1789.75 -27.5524H1790.89L1791.65 -26.7776L1839.21 21.6478L1837.74 21.0423L1874.35 21.374L1910.98 21.896L1947.6 22.4389L1984.21 23.1187L1947.6 23.7961L1910.98 24.339L1874.36 24.854L1837.75 25.1858H1836.91L1836.28 24.571L1787.86 -22.989L1789.76 -22.2025C1771.98 -22.0076 1754.19 -21.9543 1736.41 -21.8685L1683.06 -21.6365L1576.37 -21.5251L1578.75 -22.5111L1533.37 22.7289L1532.4 23.6917H1531.06L1471.33 23.4597L1441.46 23.3228L1411.59 23.0908L1351.86 22.5595C1331.95 22.3461 1312.04 22.2742 1292.13 21.9471L1293.33 21.3485L1264.77 58.0045L1250.48 76.3325L1236.11 94.5909Z" fill="url(#paint12_linear_2_967)" fill-opacity="0.08"/>
			<path d="M1364.63 74.8175L1430.96 74.1331L1497.28 73.5832L1563.6 73.0682L1629.92 72.7341L1628.45 73.3443L1675.17 26.1439L1675.87 25.4409L1676.88 25.4363L1731.67 25.1602L1786.46 24.956L1787.66 24.9514L1788.51 25.8051L1849.99 87.081L1847.84 86.1901L1981.1 85.9674L2047.74 85.856L2114.37 85.9395H2115.74L2116.7 86.9047L2236.17 206.774L2234.04 205.893L2303.55 206.011L2373.07 206.301L2374.16 206.306L2374.91 207.064L2422.14 254.782L2420.54 254.119L2495.18 254.499L2532.5 254.692L2569.82 255.003L2644.46 255.624L2719.1 256.381L2644.46 257.137L2569.82 257.759L2532.5 258.07L2495.18 258.262L2420.54 258.643L2419.62 258.647L2418.95 257.979L2371.23 210.744L2373.07 211.507L2303.55 211.797L2234.04 211.916L2232.8 211.918L2231.91 211.034L2112.04 91.5655L2114.37 92.5307L2047.74 92.6142L1981.1 92.5028L1847.84 92.2801L1846.58 92.2778L1845.69 91.3869L1784.41 29.9069L1786.46 30.756L1731.67 30.5519L1676.88 30.2735L1678.6 29.5659L1631.4 76.2907L1630.78 76.9055L1629.92 76.9008L1563.6 76.5644L1497.28 76.0494L1430.96 75.4995L1364.63 74.8175Z" fill="url(#paint13_linear_2_967)" fill-opacity="0.08"/>
			<path d="M732.988 401.803L753.585 401.248L774.181 400.828L815.378 400.021L856.572 399.434L897.766 398.998L938.959 398.71L980.153 398.52L1021.35 398.432L1062.54 398.476L1060.19 399.45L1091.17 368.638L1122.26 337.942L1123.14 337.075H1124.33L1169.02 337.511L1213.72 338.107C1228.62 338.288 1243.52 338.659 1258.41 338.947L1280.76 339.411L1303.11 340.005L1280.76 340.599L1258.41 341.063C1243.52 341.35 1228.62 341.722 1213.72 341.903L1169.02 342.499L1124.33 342.935L1126.39 342.079L1095.7 373.167L1064.89 404.146L1063.92 405.12H1062.53L1021.34 405.162L980.142 405.076L938.948 404.884L897.754 404.598L856.572 404.174L815.378 403.587L774.184 402.782L753.587 402.359L732.988 401.803Z" fill="url(#paint14_linear_2_967)" fill-opacity="0.08"/>
			<path d="M634.121 583.057L647.76 564.242L661.478 545.487L688.945 508.001L689.374 507.414L690.146 507.402C710.057 507.075 729.967 507.003 749.877 506.79L809.61 506.254L839.476 506.022L869.341 505.882L929.072 505.65L926.752 506.609L971.992 461.225L972.975 460.236H974.367L1081.06 460.348L1134.41 460.58C1152.19 460.666 1169.97 460.719 1187.75 460.914L1188.89 460.928L1189.65 461.703L1237.21 510.128L1235.75 509.523L1272.36 509.854L1308.97 510.372L1345.58 510.915L1382.21 511.59L1345.6 512.265L1308.99 512.808L1272.38 513.325L1235.77 513.657H1234.93L1234.3 513.042L1185.87 465.482L1187.77 466.268C1169.99 466.463 1152.21 466.519 1134.43 466.605L1081.08 466.837L974.388 466.951L976.771 465.965L931.387 511.205L930.422 512.167H929.074L869.343 511.935L839.478 511.796L809.612 511.564L749.879 511.026C729.969 510.815 710.059 510.743 690.149 510.413L691.35 509.815L662.791 546.471L648.498 564.799L634.121 583.057Z" fill="url(#paint15_linear_2_967)" fill-opacity="0.08"/>
			<path d="M701.681 230.436L702.271 289.754L702.099 289.336L751.912 338.39L751.116 338.061L851.63 337.365L850.342 337.898L900.364 287.406L900.986 286.779H901.888L1025.68 286.199C1066.94 285.967 1108.2 286.023 1149.46 285.921L1397.04 285.543H1398.45L1399.44 286.538L1476.56 363.899L1474.28 362.954L1617.84 363.186L1615.72 364.063L1669.52 310.441L1723.46 256.967L1724.21 256.216H1725.26L1916.24 257.144L2011.74 257.881L2107.23 258.754L2011.73 259.638L1916.24 260.375L1725.26 261.303L1727.05 260.559L1673.58 314.499L1619.96 368.29L1619.09 369.165H1617.84L1474.28 369.397H1472.95L1472 368.45L1394.64 291.334L1397.04 292.327L1149.46 291.948C1108.2 291.846 1066.94 291.907 1025.67 291.67L901.886 291.09L903.408 290.459L852.915 340.48L852.37 341.019H851.628L751.114 340.323H750.65L750.327 339.996L701.275 290.183L701.099 290.007V289.775L701.681 230.436Z" fill="url(#paint16_linear_2_967)" fill-opacity="0.08"/>
			<path d="M762.647 563.284L828.971 562.602L895.293 562.052L961.614 561.537L1027.94 561.201L1026.47 561.811L1073.19 514.613L1073.89 513.91L1074.9 513.903L1129.69 513.627L1184.48 513.423L1185.67 513.42L1186.53 514.274L1248.01 575.55L1245.86 574.659L1379.12 574.434L1445.75 574.325L1512.38 574.406L1513.75 574.408L1514.71 575.371L1634.18 695.243L1632.05 694.362L1701.57 694.478L1771.08 694.77L1772.17 694.775L1772.92 695.531L1820.16 743.249L1818.56 742.588L1893.2 742.966L1930.52 743.161L1967.84 743.471L2042.48 744.093L2117.11 744.85L2042.48 745.606L1967.84 746.228L1930.52 746.539L1893.2 746.731L1818.56 747.109L1817.63 747.114L1816.96 746.448L1769.24 699.213L1771.08 699.976L1701.57 700.266L1632.05 700.382L1630.81 700.384L1629.92 699.501L1510.05 580.034L1512.38 581L1445.75 581.083L1379.12 580.969L1245.86 580.747H1244.59L1243.7 579.856L1182.43 518.374L1184.48 519.223L1129.69 519.021L1074.9 518.742L1076.61 518.035L1029.41 564.757L1028.79 565.372L1027.94 565.367L961.614 565.033L895.293 564.518L828.971 563.968L762.647 563.284Z" fill="url(#paint17_linear_2_967)" fill-opacity="0.08"/>
			<path d="M1235.56 413.338L1275.31 412.674L1315.06 412.146L1354.82 411.628L1394.57 411.303L1474.07 410.658C1500.57 410.394 1527.07 410.373 1553.58 410.238H1554.85L1555.78 411.153L1595.86 450.987L1635.87 490.891L1633.5 489.91L1754.41 490L1814.86 490.22L1875.31 490.545L1996.22 491.534L2056.67 492.32L2086.9 492.724L2117.12 493.262L2086.89 493.8L2056.66 494.19L1996.21 494.979L1875.3 495.965L1814.85 496.29L1754.4 496.522L1633.5 496.612H1632.1L1631.12 495.628L1591.22 455.615L1551.38 415.542L1553.58 416.449C1527.07 416.315 1500.57 416.291 1474.07 416.027L1394.57 415.382L1354.81 415.059L1315.06 414.54L1275.3 414.002L1235.56 413.338Z" fill="url(#paint18_linear_2_967)" fill-opacity="0.08"/>
			<path d="M867.872 783.152L885.781 764.397L903.784 745.738C915.797 733.309 927.759 720.828 939.85 708.478L976.091 671.393L1012.45 634.424L1013.29 633.57H1014.53L1058.61 633.322L1102.69 633.199L1146.77 633.116L1190.85 633.194L1188.5 634.164L1217.82 604.988L1247.23 575.9L1248.12 575.016L1249.34 575.027L1302.68 575.45L1356.03 576.051L1382.71 576.431L1409.39 576.911L1436.07 577.389L1462.75 578.004L1436.07 578.619L1409.39 579.099L1382.71 579.579L1356.03 579.96L1302.68 580.561L1249.33 580.983L1251.44 580.111L1222.36 609.523L1193.18 638.844L1192.21 639.811H1190.83L1146.75 639.89L1102.67 639.806L1058.59 639.683L1014.51 639.435L1016.59 638.575L979.62 674.931L942.546 711.174C930.197 723.266 917.722 735.228 905.285 747.241L886.627 765.244L867.872 783.152Z" fill="url(#paint19_linear_2_967)" fill-opacity="0.08"/>
		</g>
		<path d="M0 0H1392V610C1392 627.673 1377.67 642 1360 642H32C14.3269 642 0 627.673 0 610V0Z" fill="url(#paint20_linear_2_967)" fill-opacity="0.04"/>
	</g>
	<defs>
		<linearGradient id="paint0_linear_2_967" x1="-90.9811" y1="172.444" x2="-90.9811" y2="311.405" gradientUnits="userSpaceOnUse">
			<stop stop-color="#3861FB"/>
			<stop offset="1" stop-color="white"/>
		</linearGradient>
		<linearGradient id="paint1_linear_2_967" x1="314.689" y1="48.344" x2="314.689" y2="256.478" gradientUnits="userSpaceOnUse">
			<stop stop-color="#3861FB"/>
			<stop offset="1" stop-color="white"/>
		</linearGradient>
		<linearGradient id="paint2_linear_2_967" x1="-55.2559" y1="455.428" x2="-55.2559" y2="689.122" gradientUnits="userSpaceOnUse">
			<stop stop-color="#3861FB"/>
			<stop offset="1" stop-color="white"/>
		</linearGradient>
		<linearGradient id="paint3_linear_2_967" x1="181.207" y1="352.25" x2="181.207" y2="438.626" gradientUnits="userSpaceOnUse">
			<stop stop-color="#3861FB"/>
			<stop offset="1" stop-color="white"/>
		</linearGradient>
		<linearGradient id="paint4_linear_2_967" x1="392.939" y1="305.514" x2="392.939" y2="395.302" gradientUnits="userSpaceOnUse">
			<stop stop-color="#3861FB"/>
			<stop offset="1" stop-color="white"/>
		</linearGradient>
		<linearGradient id="paint5_linear_2_967" x1="468.326" y1="363.504" x2="468.326" y2="435.262" gradientUnits="userSpaceOnUse">
			<stop stop-color="#3861FB"/>
			<stop offset="1" stop-color="white"/>
		</linearGradient>
		<linearGradient id="paint6_linear_2_967" x1="303.142" y1="443.028" x2="303.142" y2="535.053" gradientUnits="userSpaceOnUse">
			<stop stop-color="#3861FB"/>
			<stop offset="1" stop-color="white"/>
		</linearGradient>
		<linearGradient id="paint7_linear_2_967" x1="481.926" y1="539.893" x2="481.926" y2="613.323" gradientUnits="userSpaceOnUse">
			<stop stop-color="#3861FB"/>
			<stop offset="1" stop-color="white"/>
		</linearGradient>
		<linearGradient id="paint8_linear_2_967" x1="158.517" y1="-66.0896" x2="158.517" y2="56.752" gradientUnits="userSpaceOnUse">
			<stop stop-color="#3861FB"/>
			<stop offset="1" stop-color="white"/>
		</linearGradient>
		<linearGradient id="paint9_linear_2_967" x1="590.221" y1="-12.8883" x2="590.221" y2="220.808" gradientUnits="userSpaceOnUse">
			<stop stop-color="#3861FB"/>
			<stop offset="1" stop-color="white"/>
		</linearGradient>
		<linearGradient id="paint10_linear_2_967" x1="948.613" y1="-25.2888" x2="948.613" y2="66.7114" gradientUnits="userSpaceOnUse">
			<stop stop-color="#3861FB"/>
			<stop offset="1" stop-color="white"/>
		</linearGradient>
		<linearGradient id="paint11_linear_2_967" x1="1127.39" y1="71.5803" x2="1127.39" y2="144.999" gradientUnits="userSpaceOnUse">
			<stop stop-color="#3861FB"/>
			<stop offset="1" stop-color="white"/>
		</linearGradient>
		<linearGradient id="paint12_linear_2_967" x1="1610.16" y1="-28.2322" x2="1610.16" y2="94.5909" gradientUnits="userSpaceOnUse">
			<stop stop-color="#3861FB"/>
			<stop offset="1" stop-color="white"/>
		</linearGradient>
		<linearGradient id="paint13_linear_2_967" x1="2041.87" y1="24.9514" x2="2041.87" y2="258.647" gradientUnits="userSpaceOnUse">
			<stop stop-color="#3861FB"/>
			<stop offset="1" stop-color="white"/>
		</linearGradient>
		<linearGradient id="paint14_linear_2_967" x1="1018.05" y1="337.075" x2="1018.05" y2="405.162" gradientUnits="userSpaceOnUse">
			<stop stop-color="#3861FB"/>
			<stop offset="1" stop-color="white"/>
		</linearGradient>
		<linearGradient id="paint15_linear_2_967" x1="1008.17" y1="460.236" x2="1008.17" y2="583.057" gradientUnits="userSpaceOnUse">
			<stop stop-color="#3861FB"/>
			<stop offset="1" stop-color="white"/>
		</linearGradient>
		<linearGradient id="paint16_linear_2_967" x1="1404.16" y1="230.436" x2="1404.16" y2="369.397" gradientUnits="userSpaceOnUse">
			<stop stop-color="#3861FB"/>
			<stop offset="1" stop-color="white"/>
		</linearGradient>
		<linearGradient id="paint17_linear_2_967" x1="1439.88" y1="513.42" x2="1439.88" y2="747.114" gradientUnits="userSpaceOnUse">
			<stop stop-color="#3861FB"/>
			<stop offset="1" stop-color="white"/>
		</linearGradient>
		<linearGradient id="paint18_linear_2_967" x1="1676.34" y1="410.238" x2="1676.34" y2="496.612" gradientUnits="userSpaceOnUse">
			<stop stop-color="#3861FB"/>
			<stop offset="1" stop-color="white"/>
		</linearGradient>
		<linearGradient id="paint19_linear_2_967" x1="1165.31" y1="575.016" x2="1165.31" y2="783.152" gradientUnits="userSpaceOnUse">
			<stop stop-color="#3861FB"/>
			<stop offset="1" stop-color="white"/>
		</linearGradient>
		<linearGradient id="paint20_linear_2_967" x1="696" y1="0" x2="696" y2="642" gradientUnits="userSpaceOnUse">
			<stop offset="1" stop-color="#3861FB"/>
			<stop stop-color="white" stop-opacity="0"/>
		</linearGradient>
		<clipPath id="clip0_2_967">
			<rect width="1392" height="642" fill="white"/>
		</clipPath>
	</defs>
</svg>

